<svg width="88" height="42" viewBox="0 0 88 42" fill="none" xmlns="http://www.w3.org/2000/svg">
<g clip-path="url(#clip0_499_142)">
<path d="M12.4347 10.2384C11.1679 10.2384 9.82306 10.5318 8.3418 11.1674C6.86055 11.803 5.73012 12.7711 4.88229 14.1695V10.6589H0V42H5.01873V29.9525C5.81782 31.1748 6.91902 32.0647 8.39053 32.7003C9.86204 33.2968 11.1776 33.5902 12.3081 33.5902C15.5532 33.5902 18.2136 32.4461 20.3185 30.1187C22.4235 27.7914 23.4759 25.0435 23.4759 21.8654C23.4759 18.8633 22.4625 16.1546 20.3965 13.7881C18.3793 11.4216 15.7286 10.2384 12.4347 10.2384ZM16.5277 26.9895C15.3095 28.339 13.6626 29.0235 11.6844 29.0235C9.70612 29.0235 8.0592 28.3488 6.79233 26.9895C5.5742 25.5911 4.94076 23.8994 4.94076 21.9143C4.94076 19.9292 5.5742 18.2375 6.79233 16.8391C8.0592 15.4407 9.69637 14.766 11.6844 14.766C13.6724 14.766 15.3095 15.4407 16.5277 16.8391C17.7945 18.2375 18.428 19.9292 18.428 21.9143C18.4182 23.8994 17.7945 25.5911 16.5277 26.9895Z" fill="#0E8FAB"/>
<path d="M30.1513 14.2575V10.6589H25.2593V33.248H30.278V21.7872C30.278 17.8561 32.305 15.607 36.1348 15.607C36.6805 15.607 37.1483 15.6461 37.5673 15.7341V10.5709C37.275 10.4829 36.8949 10.4438 36.3492 10.4438C33.6108 10.4536 31.5449 11.715 30.1513 14.2575Z" fill="#0E8FAB"/>
<path d="M44.6227 10.6589H39.604V33.248H44.6227V10.6589Z" fill="#0E8FAB"/>
<path d="M39.7794 1.017C38.4736 2.32736 38.4736 4.36135 39.7794 5.67171C41.0853 6.98208 43.1123 6.98208 44.4181 5.67171C45.7239 4.36135 45.7239 2.32736 44.4181 1.017C43.1025 -0.342255 41.0853 -0.342255 39.7794 1.017Z" fill="#0E8FAB"/>
<path d="M56.3949 19.4989C53.4909 18.8633 52.224 18.1006 52.224 16.624C52.224 15.4016 53.8222 14.4237 55.3814 14.4237C57.5351 14.4237 59.0943 15.4407 60.1078 17.465L63.9863 15.2647C62.4271 11.8812 59.601 10.1895 55.5568 10.1895C53.3642 10.1895 51.4639 10.8251 49.8267 12.1355C48.1798 13.4459 47.3807 15.0985 47.3807 17.1227C47.3807 18.7264 47.9264 20.0857 48.9789 21.2298C50.197 22.5402 52.0973 23.43 54.5823 23.9385C57.6618 24.5741 59.221 25.5911 59.221 26.9015C59.221 28.427 57.5741 29.3951 55.6835 29.3951C53.2765 29.3951 51.5126 28.1728 50.2847 25.7574L46.3672 27.9674C48.0921 31.7322 51.2105 33.6391 55.6835 33.6391C58.2172 33.6391 60.2832 33.0035 61.8424 31.6931C63.4016 30.3828 64.2007 28.691 64.2007 26.6179C64.2007 23.0975 61.5013 20.6431 56.3949 19.4989Z" fill="#0E8FAB"/>
<path d="M87.706 21.8752C87.706 18.3646 86.7315 15.5679 84.8019 13.4165C82.8626 11.2554 80.1633 10.1993 76.7525 10.1993C73.5074 10.1993 70.808 11.3434 68.6543 13.6219C66.5006 15.9004 65.4092 18.658 65.4092 21.9143C65.4092 25.2587 66.5494 28.0945 68.781 30.3339C71.0613 32.5732 73.8777 33.6782 77.2105 33.6782C81.2547 33.6782 84.9286 31.7323 86.8192 28.2217L83.194 25.8063C81.9758 28.1337 79.9489 29.3169 77.1228 29.3169C75.3979 29.3169 73.8777 28.7693 72.5718 27.6643C71.266 26.5201 70.5936 25.1218 70.5448 23.43H87.6183C87.667 23.0584 87.706 22.5499 87.706 21.8752ZM70.7982 19.6261C71.266 16.536 73.6633 14.5118 76.7427 14.5118C79.9489 14.5118 82.4339 16.4577 82.5995 19.6261H70.7982Z" fill="#0E8FAB"/>
</g>
<defs>
<clipPath id="clip0_499_142">
<rect width="87.7059" height="42" fill="white"/>
</clipPath>
</defs>
</svg>
