<svg width="56" height="28" viewBox="0 0 56 28" fill="none" xmlns="http://www.w3.org/2000/svg">
<g clip-path="url(#clip0_349_3397)">
<path d="M7.93956 7.06445C7.13067 7.06445 6.272 7.25351 5.32622 7.66313C4.38045 8.07276 3.65867 8.69665 3.11733 9.59782V7.33544H0V27.533H3.20444V19.7691C3.71467 20.5568 4.41778 21.1303 5.35733 21.5399C6.29689 21.9243 7.13689 22.1134 7.85867 22.1134C9.93067 22.1134 11.6293 21.3761 12.9733 19.8762C14.3173 18.3764 14.9893 16.6055 14.9893 14.5574C14.9893 12.6227 14.3422 10.8771 13.0231 9.35204C11.7351 7.82698 10.0427 7.06445 7.93956 7.06445ZM10.5529 17.8596C9.77511 18.7293 8.72356 19.1704 7.46045 19.1704C6.19733 19.1704 5.14578 18.7356 4.33689 17.8596C3.55911 16.9584 3.15467 15.8682 3.15467 14.5889C3.15467 13.3096 3.55911 12.2194 4.33689 11.3182C5.14578 10.4171 6.19111 9.98223 7.46045 9.98223C8.72978 9.98223 9.77511 10.4171 10.5529 11.3182C11.3618 12.2194 11.7662 13.3096 11.7662 14.5889C11.76 15.8682 11.3618 16.9584 10.5529 17.8596Z" fill="#AEF0FF"/>
<path d="M19.2515 9.65452V7.33542H16.1279V21.8928H19.3324V14.507C19.3324 11.9736 20.6266 10.5242 23.0719 10.5242C23.4204 10.5242 23.719 10.5494 23.9866 10.6061V7.2787C23.7999 7.22198 23.5573 7.19678 23.2088 7.19678C21.4604 7.20308 20.1413 8.01602 19.2515 9.65452Z" fill="#AEF0FF"/>
<path d="M28.4916 7.33545H25.2871V21.8928H28.4916V7.33545Z" fill="#AEF0FF"/>
<path d="M25.399 1.12182C24.5652 1.96627 24.5652 3.27707 25.399 4.12152C26.2328 4.96598 27.527 4.96598 28.3608 4.12152C29.1946 3.27707 29.1946 1.96627 28.3608 1.12182C27.5208 0.245853 26.2328 0.245853 25.399 1.12182Z" fill="#AEF0FF"/>
<path d="M36.0079 13.0326C34.1537 12.623 33.3448 12.1314 33.3448 11.1799C33.3448 10.3921 34.3652 9.76193 35.3608 9.76193C36.7359 9.76193 37.7314 10.4173 38.3786 11.7218L40.855 10.3039C39.8594 8.12343 38.055 7.0332 35.4728 7.0332C34.0728 7.0332 32.8594 7.44283 31.8141 8.28728C30.7626 9.13174 30.2523 10.1968 30.2523 11.5013C30.2523 12.5348 30.6008 13.4107 31.2728 14.1481C32.0506 14.9925 33.2639 15.566 34.8506 15.8937C36.8168 16.3033 37.8123 16.9587 37.8123 17.8032C37.8123 18.7863 36.7608 19.4101 35.5537 19.4101C34.0168 19.4101 32.8906 18.6224 32.1066 17.0658L29.6052 18.4901C30.7066 20.9163 32.6977 22.1452 35.5537 22.1452C37.1714 22.1452 38.4906 21.7355 39.4861 20.8911C40.4817 20.0466 40.9919 18.9564 40.9919 17.6204C40.9919 15.3517 39.2683 13.7699 36.0079 13.0326Z" fill="#AEF0FF"/>
<path d="M56.0001 14.564C56.0001 12.3016 55.3779 10.4993 54.1459 9.11288C52.9077 7.72016 51.1841 7.03955 49.0063 7.03955C46.9343 7.03955 45.2108 7.77687 43.8357 9.24522C42.4606 10.7136 41.7637 12.4907 41.7637 14.5892C41.7637 16.7445 42.4917 18.572 43.9166 20.0152C45.3726 21.4583 47.1708 22.1704 49.2988 22.1704C51.881 22.1704 54.2268 20.9163 55.4339 18.654L53.1192 17.0974C52.3414 18.5972 51.0472 19.3598 49.2428 19.3598C48.1414 19.3598 47.1708 19.0069 46.337 18.2947C45.5032 17.5574 45.0739 16.6563 45.0428 15.566H55.9441C55.9752 15.3266 56.0001 14.9989 56.0001 14.564ZM45.2046 13.1146C45.5032 11.1232 47.0339 9.81869 49.0001 9.81869C51.0472 9.81869 52.6339 11.0728 52.7397 13.1146H45.2046Z" fill="#AEF0FF"/>
</g>
<defs>
<clipPath id="clip0_349_3397">
<rect width="56" height="27.0667" fill="white" transform="translate(0 0.466797)"/>
</clipPath>
</defs>
</svg>
